<?xml version="1.0" encoding="UTF-8"?>
<svg xmlns="http://www.w3.org/2000/svg" xmlns:xlink="http://www.w3.org/1999/xlink" width="1164.48pt" height="131.7pt" viewBox="0 0 1164.48 131.7" version="1.1">
<defs>
<clipPath id="clip1">
  <path d="M 37 107 L 124 107 L 124 131.699219 L 37 131.699219 Z M 37 107 "/>
</clipPath>
<clipPath id="clip2">
  <path d="M 1132 23 L 1164.480469 23 L 1164.480469 69 L 1132 69 Z M 1132 23 "/>
</clipPath>
</defs>
<g id="surface1">
<path style=" stroke:none;fill-rule:nonzero;fill:rgb(13.299561%,12.199402%,12.5%);fill-opacity:1;" d="M 94.023438 1.0625 L 89.429688 13.082031 L 99.4375 21.160156 L 86.589844 20.507813 L 82 32.523438 L 78.652344 20.101563 L 65.804688 19.445313 L 76.582031 12.425781 L 73.234375 0.00390625 L 83.242188 8.085938 L 94.023438 1.0625 "/>
<path style=" stroke:none;fill-rule:nonzero;fill:rgb(13.299561%,12.199402%,12.5%);fill-opacity:1;" d="M 126.84375 114.527344 C 126.84375 114.527344 106.945313 105.023438 80.128906 105.023438 C 53.3125 105.023438 34.4375 114.527344 34.4375 114.527344 L 34.4375 107.367188 C 34.4375 107.367188 57.199219 97.863281 80.46875 97.863281 C 103.742188 97.863281 126.84375 107.367188 126.84375 107.367188 L 126.84375 114.527344 "/>
<g clip-path="url(#clip1)" clip-rule="nonzero">
<path style=" stroke:none;fill-rule:nonzero;fill:rgb(13.299561%,12.199402%,12.5%);fill-opacity:1;" d="M 115.191406 131.699219 L 80.308594 114.886719 L 43.472656 130.542969 L 37.921875 118.53125 C 37.921875 118.53125 57.941406 107.722656 80.648438 107.722656 C 103.355469 107.722656 123.359375 120.429688 123.359375 120.429688 L 115.191406 131.699219 "/>
</g>
<path style=" stroke:none;fill-rule:nonzero;fill:rgb(92.498779%,12.5%,15.299988%);fill-opacity:1;" d="M 77.867188 73.296875 C 73.609375 79.160156 66.703125 82.96875 58.902344 82.96875 C 45.960938 82.96875 35.472656 72.480469 35.472656 59.542969 C 35.472656 46.601563 45.960938 36.109375 58.902344 36.109375 C 67.445313 36.109375 74.921875 40.683594 79.015625 47.515625 L 79.136719 47.71875 C 74.367188 30.769531 58.78125 18.230469 40.308594 18.230469 C 18.046875 18.230469 0 36.277344 0 58.539063 C 0 80.804688 18.046875 98.851563 40.308594 98.851563 C 57.378906 98.851563 71.960938 88.339844 77.839844 73.359375 L 77.867188 73.296875 "/>
<path style=" stroke:none;fill-rule:nonzero;fill:rgb(92.498779%,12.5%,15.299988%);fill-opacity:1;" d="M 80.816406 63.003906 C 81.832031 55.828125 86.152344 49.226563 93.042969 45.574219 C 104.476563 39.515625 118.65625 43.867188 124.71875 55.300781 C 130.777344 66.734375 126.421875 80.917969 114.988281 86.976563 C 107.441406 90.976563 98.691406 90.4375 91.878906 86.316406 L 91.675781 86.199219 C 103.824219 98.9375 123.46875 102.71875 139.789063 94.066406 C 159.460938 83.644531 166.953125 59.242188 156.527344 39.574219 C 146.101563 19.90625 121.707031 12.410156 102.035156 22.835938 C 86.953125 30.828125 78.992188 46.945313 80.8125 62.933594 L 80.816406 63.003906 "/>
<path style=" stroke:none;fill-rule:nonzero;fill:rgb(13.299561%,12.199402%,12.5%);fill-opacity:1;" d="M 194.425781 54.058594 L 203.40625 53.183594 C 203.945313 56.199219 205.042969 58.414063 206.695313 59.828125 C 208.347656 61.242188 210.578125 61.945313 213.386719 61.945313 C 216.355469 61.945313 218.597656 61.320313 220.105469 60.0625 C 221.609375 58.804688 222.363281 57.332031 222.363281 55.648438 C 222.363281 54.566406 222.046875 53.648438 221.414063 52.890625 C 220.777344 52.132813 219.671875 51.46875 218.09375 50.910156 C 217.011719 50.535156 214.546875 49.871094 210.703125 48.914063 C 205.757813 47.6875 202.285156 46.179688 200.289063 44.394531 C 197.484375 41.878906 196.078125 38.8125 196.078125 35.195313 C 196.078125 32.867188 196.738281 30.6875 198.058594 28.664063 C 199.378906 26.636719 201.28125 25.09375 203.765625 24.03125 C 206.25 22.972656 209.246094 22.441406 212.761719 22.441406 C 218.496094 22.441406 222.816406 23.699219 225.714844 26.214844 C 228.617188 28.730469 230.136719 32.089844 230.285156 36.285156 L 221.054688 36.691406 C 220.660156 34.34375 219.8125 32.652344 218.515625 31.625 C 217.214844 30.597656 215.265625 30.082031 212.667969 30.082031 C 209.984375 30.082031 207.886719 30.632813 206.367188 31.734375 C 205.390625 32.441406 204.902344 33.386719 204.902344 34.570313 C 204.902344 35.652344 205.359375 36.578125 206.273438 37.347656 C 207.4375 38.324219 210.265625 39.34375 214.757813 40.402344 C 219.246094 41.460938 222.566406 42.558594 224.71875 43.691406 C 226.871094 44.824219 228.554688 46.371094 229.769531 48.335938 C 230.984375 50.300781 231.59375 52.726563 231.59375 55.617188 C 231.59375 58.238281 230.867188 60.691406 229.410156 62.976563 C 227.957031 65.261719 225.898438 66.960938 223.238281 68.074219 C 220.574219 69.183594 217.261719 69.742188 213.289063 69.742188 C 207.511719 69.742188 203.074219 68.40625 199.976563 65.734375 C 196.878906 63.066406 195.03125 59.171875 194.425781 54.058594 "/>
<path style=" stroke:none;fill-rule:nonzero;fill:rgb(13.299561%,12.199402%,12.5%);fill-opacity:1;" d="M 239.386719 68.929688 L 239.386719 23.222656 L 248.617188 23.222656 L 248.617188 41.210938 L 266.703125 41.210938 L 266.703125 23.222656 L 275.929688 23.222656 L 275.929688 68.929688 L 266.703125 68.929688 L 266.703125 48.945313 L 248.617188 48.945313 L 248.617188 68.929688 L 239.386719 68.929688 "/>
<path style=" stroke:none;fill-rule:nonzero;fill:rgb(13.299561%,12.199402%,12.5%);fill-opacity:1;" d="M 309.699219 50.847656 L 303.398438 33.886719 L 297.226563 50.847656 Z M 326.691406 68.929688 L 316.652344 68.929688 L 312.660156 58.546875 L 294.390625 58.546875 L 290.617188 68.929688 L 280.824219 68.929688 L 298.628906 23.222656 L 308.386719 23.222656 L 326.691406 68.929688 "/>
<path style=" stroke:none;fill-rule:nonzero;fill:rgb(13.299561%,12.199402%,12.5%);fill-opacity:1;" d="M 331.523438 23.222656 L 340.753906 23.222656 L 340.753906 47.976563 C 340.753906 51.90625 340.867188 54.453125 341.09375 55.617188 C 341.488281 57.488281 342.429688 58.992188 343.917969 60.121094 C 345.402344 61.257813 347.433594 61.820313 350.011719 61.820313 C 352.632813 61.820313 354.605469 61.289063 355.9375 60.214844 C 357.265625 59.144531 358.066406 57.832031 358.339844 56.273438 C 358.605469 54.714844 358.742188 52.125 358.742188 48.507813 L 358.742188 23.222656 L 367.972656 23.222656 L 367.972656 47.230469 C 367.972656 52.71875 367.722656 56.59375 367.222656 58.859375 C 366.726563 61.125 365.804688 63.039063 364.464844 64.597656 C 363.125 66.15625 361.332031 67.398438 359.085938 68.324219 C 356.839844 69.246094 353.910156 69.710938 350.292969 69.710938 C 345.929688 69.710938 342.617188 69.207031 340.363281 68.199219 C 338.105469 67.191406 336.324219 65.882813 335.015625 64.269531 C 333.707031 62.660156 332.84375 60.96875 332.429688 59.203125 C 331.824219 56.585938 331.523438 52.71875 331.523438 47.605469 L 331.523438 23.222656 "/>
<path style=" stroke:none;fill-rule:nonzero;fill:rgb(13.299561%,12.199402%,12.5%);fill-opacity:1;" d="M 377.824219 68.929688 L 377.824219 23.222656 L 387.054688 23.222656 L 387.054688 43.519531 L 405.699219 23.222656 L 418.109375 23.222656 L 400.898438 41.027344 L 419.042969 68.929688 L 407.101563 68.929688 L 394.535156 47.480469 L 387.054688 55.117188 L 387.054688 68.929688 L 377.824219 68.929688 "/>
<path style=" stroke:none;fill-rule:nonzero;fill:rgb(13.299561%,12.199402%,12.5%);fill-opacity:1;" d="M 448.039063 50.847656 L 441.742188 33.886719 L 435.570313 50.847656 Z M 465.035156 68.929688 L 454.992188 68.929688 L 451.003906 58.546875 L 432.730469 58.546875 L 428.960938 68.929688 L 419.167969 68.929688 L 436.972656 23.222656 L 446.730469 23.222656 L 465.035156 68.929688 "/>
<path style=" stroke:none;fill-rule:nonzero;fill:rgb(13.299561%,12.199402%,12.5%);fill-opacity:1;" d="M 475.480469 68.929688 L 475.480469 30.953125 L 461.914063 30.953125 L 461.914063 23.222656 L 498.238281 23.222656 L 498.238281 30.953125 L 484.707031 30.953125 L 484.707031 68.929688 L 475.480469 68.929688 "/>
<path style=" stroke:none;fill-rule:nonzero;fill:rgb(13.299561%,12.199402%,12.5%);fill-opacity:1;" d="M 522.0625 68.929688 L 522.0625 23.222656 L 531.289063 23.222656 L 531.289063 43.519531 L 549.933594 23.222656 L 562.34375 23.222656 L 545.132813 41.027344 L 563.28125 68.929688 L 551.339844 68.929688 L 538.773438 47.480469 L 531.289063 55.117188 L 531.289063 68.929688 L 522.0625 68.929688 "/>
<path style=" stroke:none;fill-rule:nonzero;fill:rgb(13.299561%,12.199402%,12.5%);fill-opacity:1;" d="M 568.082031 68.929688 L 568.082031 23.222656 L 577.3125 23.222656 L 577.3125 41.210938 L 595.394531 41.210938 L 595.394531 23.222656 L 604.625 23.222656 L 604.625 68.929688 L 595.394531 68.929688 L 595.394531 48.945313 L 577.3125 48.945313 L 577.3125 68.929688 L 568.082031 68.929688 "/>
<path style=" stroke:none;fill-rule:nonzero;fill:rgb(13.299561%,12.199402%,12.5%);fill-opacity:1;" d="M 638.390625 50.847656 L 632.09375 33.886719 L 625.917969 50.847656 Z M 655.382813 68.929688 L 645.34375 68.929688 L 641.351563 58.546875 L 623.082031 58.546875 L 619.308594 68.929688 L 609.519531 68.929688 L 627.324219 23.222656 L 637.082031 23.222656 L 655.382813 68.929688 "/>
<path style=" stroke:none;fill-rule:nonzero;fill:rgb(13.299561%,12.199402%,12.5%);fill-opacity:1;" d="M 660.371094 68.929688 L 660.371094 23.222656 L 669.351563 23.222656 L 688.058594 53.746094 L 688.058594 23.222656 L 696.632813 23.222656 L 696.632813 68.929688 L 687.375 68.929688 L 668.945313 39.125 L 668.945313 68.929688 L 660.371094 68.929688 "/>
<path style=" stroke:none;fill-rule:nonzero;fill:rgb(13.299561%,12.199402%,12.5%);fill-opacity:1;" d="M 706.332031 23.222656 L 715.558594 23.222656 L 715.558594 47.976563 C 715.558594 51.90625 715.675781 54.453125 715.902344 55.617188 C 716.296875 57.488281 717.238281 58.992188 718.726563 60.121094 C 720.210938 61.257813 722.242188 61.820313 724.820313 61.820313 C 727.4375 61.820313 729.414063 61.289063 730.746094 60.214844 C 732.074219 59.144531 732.875 57.832031 733.144531 56.273438 C 733.414063 54.714844 733.550781 52.125 733.550781 48.507813 L 733.550781 23.222656 L 742.78125 23.222656 L 742.78125 47.230469 C 742.78125 52.71875 742.53125 56.59375 742.03125 58.859375 C 741.53125 61.125 740.613281 63.039063 739.273438 64.597656 C 737.929688 66.15625 736.136719 67.398438 733.894531 68.324219 C 731.648438 69.246094 728.71875 69.710938 725.101563 69.710938 C 720.734375 69.710938 717.425781 69.207031 715.171875 68.199219 C 712.914063 67.191406 711.132813 65.882813 709.824219 64.269531 C 708.511719 62.660156 707.652344 60.96875 707.234375 59.203125 C 706.632813 56.585938 706.332031 52.71875 706.332031 47.605469 L 706.332031 23.222656 "/>
<path style=" stroke:none;fill-rule:nonzero;fill:rgb(13.299561%,12.199402%,12.5%);fill-opacity:1;" d="M 752.382813 68.929688 L 752.382813 23.222656 L 766.195313 23.222656 L 774.488281 54.402344 L 782.6875 23.222656 L 796.53125 23.222656 L 796.53125 68.929688 L 787.957031 68.929688 L 787.957031 32.949219 L 778.886719 68.929688 L 770 68.929688 L 760.957031 32.949219 L 760.957031 68.929688 L 752.382813 68.929688 "/>
<path style=" stroke:none;fill-rule:nonzero;fill:rgb(13.299561%,12.199402%,12.5%);fill-opacity:1;" d="M 823.316406 68.929688 L 823.316406 23.222656 L 837.128906 23.222656 L 845.421875 54.402344 L 853.621094 23.222656 L 867.464844 23.222656 L 867.464844 68.929688 L 858.890625 68.929688 L 858.890625 32.949219 L 849.820313 68.929688 L 840.933594 68.929688 L 831.890625 32.949219 L 831.890625 68.929688 L 823.316406 68.929688 "/>
<path style=" stroke:none;fill-rule:nonzero;fill:rgb(13.299561%,12.199402%,12.5%);fill-opacity:1;" d="M 876.632813 68.929688 L 876.632813 23.222656 L 910.527344 23.222656 L 910.527344 30.953125 L 885.863281 30.953125 L 885.863281 41.089844 L 908.8125 41.089844 L 908.8125 48.789063 L 885.863281 48.789063 L 885.863281 61.230469 L 911.398438 61.230469 L 911.398438 68.929688 L 876.632813 68.929688 "/>
<path style=" stroke:none;fill-rule:nonzero;fill:rgb(13.299561%,12.199402%,12.5%);fill-opacity:1;" d="M 919.101563 68.929688 L 919.101563 23.222656 L 932.914063 23.222656 L 941.207031 54.402344 L 949.40625 23.222656 L 963.25 23.222656 L 963.25 68.929688 L 954.675781 68.929688 L 954.675781 32.949219 L 945.601563 68.929688 L 936.714844 68.929688 L 927.675781 32.949219 L 927.675781 68.929688 L 919.101563 68.929688 "/>
<path style=" stroke:none;fill-rule:nonzero;fill:rgb(13.299561%,12.199402%,12.5%);fill-opacity:1;" d="M 980.054688 46.046875 C 980.054688 51.222656 981.25 55.144531 983.640625 57.816406 C 986.03125 60.488281 989.066406 61.820313 992.746094 61.820313 C 996.425781 61.820313 999.445313 60.496094 1001.800781 57.847656 C 1004.160156 55.195313 1005.339844 51.222656 1005.339844 45.921875 C 1005.339844 40.683594 1004.191406 36.773438 1001.898438 34.199219 C 999.601563 31.621094 996.550781 30.332031 992.746094 30.332031 C 988.941406 30.332031 985.875 31.636719 983.546875 34.242188 C 981.21875 36.851563 980.054688 40.785156 980.054688 46.046875 Z M 970.546875 46.355469 C 970.546875 41.703125 971.242188 37.792969 972.636719 34.632813 C 973.675781 32.304688 975.09375 30.21875 976.890625 28.367188 C 978.6875 26.515625 980.660156 25.144531 982.800781 24.25 C 985.648438 23.046875 988.929688 22.441406 992.652344 22.441406 C 999.386719 22.441406 1004.78125 24.53125 1008.820313 28.710938 C 1012.859375 32.886719 1014.878906 38.699219 1014.878906 46.140625 C 1014.878906 53.519531 1012.878906 59.292969 1008.871094 63.460938 C 1004.851563 67.628906 999.492188 69.710938 992.777344 69.710938 C 985.980469 69.710938 980.574219 67.636719 976.5625 63.492188 C 972.550781 59.34375 970.546875 53.632813 970.546875 46.355469 "/>
<path style=" stroke:none;fill-rule:nonzero;fill:rgb(13.299561%,12.199402%,12.5%);fill-opacity:1;" d="M 1031.351563 42.554688 L 1038.171875 42.554688 C 1042.601563 42.554688 1045.371094 42.367188 1046.46875 41.992188 C 1047.570313 41.617188 1048.429688 40.972656 1049.058594 40.058594 C 1049.679688 39.144531 1049.988281 38 1049.988281 36.628906 C 1049.988281 35.089844 1049.578125 33.847656 1048.761719 32.902344 C 1047.941406 31.957031 1046.78125 31.359375 1045.28125 31.109375 C 1044.53125 31.007813 1042.289063 30.953125 1038.550781 30.953125 L 1031.351563 30.953125 Z M 1022.121094 68.929688 L 1022.121094 23.222656 L 1041.539063 23.222656 C 1046.429688 23.222656 1049.980469 23.632813 1052.191406 24.453125 C 1054.398438 25.273438 1056.179688 26.734375 1057.511719 28.835938 C 1058.839844 30.933594 1059.5 33.335938 1059.5 36.035156 C 1059.5 39.464844 1058.488281 42.296875 1056.480469 44.53125 C 1054.460938 46.769531 1051.449219 48.175781 1047.441406 48.757813 C 1049.429688 49.921875 1051.078125 51.199219 1052.378906 52.59375 C 1053.679688 53.984375 1055.429688 56.460938 1057.628906 60.015625 L 1063.210938 68.929688 L 1052.171875 68.929688 L 1045.5 58.984375 C 1043.128906 55.429688 1041.511719 53.191406 1040.640625 52.265625 C 1039.761719 51.339844 1038.839844 50.707031 1037.859375 50.363281 C 1036.890625 50.019531 1035.339844 49.847656 1033.21875 49.847656 L 1031.351563 49.847656 L 1031.351563 68.929688 L 1022.121094 68.929688 "/>
<path style=" stroke:none;fill-rule:nonzero;fill:rgb(13.299561%,12.199402%,12.5%);fill-opacity:1;" d="M 1067.921875 68.929688 L 1067.921875 23.222656 L 1077.148438 23.222656 L 1077.148438 68.929688 L 1067.921875 68.929688 "/>
<path style=" stroke:none;fill-rule:nonzero;fill:rgb(13.299561%,12.199402%,12.5%);fill-opacity:1;" d="M 1110.171875 50.847656 L 1103.871094 33.886719 L 1097.699219 50.847656 Z M 1127.160156 68.929688 L 1117.121094 68.929688 L 1113.128906 58.546875 L 1094.859375 58.546875 L 1091.089844 68.929688 L 1081.300781 68.929688 L 1099.101563 23.222656 L 1108.859375 23.222656 L 1127.160156 68.929688 "/>
<g clip-path="url(#clip2)" clip-rule="nonzero">
<path style=" stroke:none;fill-rule:nonzero;fill:rgb(13.299561%,12.199402%,12.5%);fill-opacity:1;" d="M 1132.308594 68.929688 L 1132.308594 23.597656 L 1141.53125 23.597656 L 1141.53125 61.230469 L 1164.480469 61.230469 L 1164.480469 68.929688 L 1132.308594 68.929688 "/>
</g>
<path style=" stroke:none;fill-rule:nonzero;fill:rgb(13.299561%,12.199402%,12.5%);fill-opacity:1;" d="M 214.203125 99.140625 L 217.234375 99.90625 C 216.597656 102.398438 215.453125 104.296875 213.804688 105.601563 C 212.152344 106.910156 210.132813 107.5625 207.75 107.5625 C 205.28125 107.5625 203.273438 107.0625 201.726563 106.054688 C 200.179688 105.050781 199 103.59375 198.195313 101.6875 C 197.386719 99.78125 196.984375 97.734375 196.984375 95.546875 C 196.984375 93.164063 197.4375 91.082031 198.351563 89.304688 C 199.261719 87.53125 200.558594 86.179688 202.242188 85.257813 C 203.921875 84.335938 205.773438 83.875 207.796875 83.875 C 210.085938 83.875 212.015625 84.460938 213.578125 85.625 C 215.140625 86.792969 216.226563 88.433594 216.84375 90.546875 L 213.859375 91.25 C 213.328125 89.585938 212.554688 88.371094 211.546875 87.609375 C 210.535156 86.851563 209.265625 86.46875 207.734375 86.46875 C 205.972656 86.46875 204.5 86.890625 203.320313 87.734375 C 202.136719 88.578125 201.304688 89.710938 200.828125 91.132813 C 200.347656 92.554688 200.109375 94.023438 200.109375 95.53125 C 200.109375 97.480469 200.390625 99.179688 200.960938 100.632813 C 201.527344 102.085938 202.410156 103.171875 203.609375 103.890625 C 204.804688 104.609375 206.101563 104.96875 207.5 104.96875 C 209.195313 104.96875 210.632813 104.480469 211.8125 103.5 C 212.988281 102.523438 213.785156 101.070313 214.203125 99.140625 "/>
<path style=" stroke:none;fill-rule:nonzero;fill:rgb(13.299561%,12.199402%,12.5%);fill-opacity:1;" d="M 225.0625 97.765625 L 232.828125 97.765625 L 230.4375 91.421875 C 229.707031 89.496094 229.164063 87.914063 228.8125 86.671875 C 228.519531 88.140625 228.109375 89.601563 227.578125 91.046875 Z M 218.453125 107.171875 L 227.25 84.265625 L 230.515625 84.265625 L 239.890625 107.171875 L 236.4375 107.171875 L 233.765625 100.234375 L 224.1875 100.234375 L 221.671875 107.171875 L 218.453125 107.171875 "/>
<path style=" stroke:none;fill-rule:nonzero;fill:rgb(13.299561%,12.199402%,12.5%);fill-opacity:1;" d="M 242.28125 107.171875 L 242.28125 84.265625 L 245.390625 84.265625 L 257.421875 102.25 L 257.421875 84.265625 L 260.328125 84.265625 L 260.328125 107.171875 L 257.21875 107.171875 L 245.1875 89.171875 L 245.1875 107.171875 L 242.28125 107.171875 "/>
<path style=" stroke:none;fill-rule:nonzero;fill:rgb(13.299561%,12.199402%,12.5%);fill-opacity:1;" d="M 281.765625 99.140625 L 284.796875 99.90625 C 284.160156 102.398438 283.015625 104.296875 281.367188 105.601563 C 279.714844 106.910156 277.695313 107.5625 275.3125 107.5625 C 272.84375 107.5625 270.835938 107.0625 269.289063 106.054688 C 267.742188 105.050781 266.5625 103.59375 265.757813 101.6875 C 264.949219 99.78125 264.546875 97.734375 264.546875 95.546875 C 264.546875 93.164063 265 91.082031 265.914063 89.304688 C 266.824219 87.53125 268.121094 86.179688 269.804688 85.257813 C 271.484375 84.335938 273.335938 83.875 275.359375 83.875 C 277.648438 83.875 279.578125 84.460938 281.140625 85.625 C 282.703125 86.792969 283.789063 88.433594 284.40625 90.546875 L 281.421875 91.25 C 280.890625 89.585938 280.117188 88.371094 279.109375 87.609375 C 278.097656 86.851563 276.828125 86.46875 275.296875 86.46875 C 273.535156 86.46875 272.0625 86.890625 270.882813 87.734375 C 269.699219 88.578125 268.867188 89.710938 268.390625 91.132813 C 267.910156 92.554688 267.671875 94.023438 267.671875 95.53125 C 267.671875 97.480469 267.953125 99.179688 268.523438 100.632813 C 269.089844 102.085938 269.972656 103.171875 271.171875 103.890625 C 272.367188 104.609375 273.664063 104.96875 275.0625 104.96875 C 276.757813 104.96875 278.195313 104.480469 279.375 103.5 C 280.550781 102.523438 281.347656 101.070313 281.765625 99.140625 "/>
<path style=" stroke:none;fill-rule:nonzero;fill:rgb(13.299561%,12.199402%,12.5%);fill-opacity:1;" d="M 288.59375 107.171875 L 288.59375 84.265625 L 305.15625 84.265625 L 305.15625 86.96875 L 291.625 86.96875 L 291.625 93.984375 L 304.296875 93.984375 L 304.296875 96.671875 L 291.625 96.671875 L 291.625 104.46875 L 305.6875 104.46875 L 305.6875 107.171875 L 288.59375 107.171875 "/>
<path style=" stroke:none;fill-rule:nonzero;fill:rgb(13.299561%,12.199402%,12.5%);fill-opacity:1;" d="M 312.953125 94.375 L 319.46875 94.375 C 320.851563 94.375 321.9375 94.234375 322.71875 93.945313 C 323.5 93.660156 324.09375 93.203125 324.5 92.570313 C 324.90625 91.941406 325.109375 91.257813 325.109375 90.515625 C 325.109375 89.433594 324.714844 88.542969 323.929688 87.84375 C 323.140625 87.148438 321.898438 86.796875 320.203125 86.796875 L 312.953125 86.796875 Z M 309.921875 107.171875 L 309.921875 84.265625 L 320.078125 84.265625 C 322.117188 84.265625 323.671875 84.472656 324.734375 84.882813 C 325.796875 85.296875 326.644531 86.023438 327.28125 87.0625 C 327.914063 88.105469 328.234375 89.257813 328.234375 90.515625 C 328.234375 92.140625 327.707031 93.511719 326.65625 94.625 C 325.601563 95.742188 323.976563 96.449219 321.78125 96.75 C 322.582031 97.136719 323.191406 97.515625 323.609375 97.890625 C 324.492188 98.703125 325.332031 99.71875 326.125 100.9375 L 330.109375 107.171875 L 326.296875 107.171875 L 323.265625 102.40625 C 322.378906 101.03125 321.648438 99.980469 321.078125 99.25 C 320.503906 98.523438 319.992188 98.011719 319.539063 97.71875 C 319.085938 97.429688 318.625 97.226563 318.15625 97.109375 C 317.8125 97.039063 317.25 97 316.46875 97 L 312.953125 97 L 312.953125 107.171875 L 309.921875 107.171875 "/>
<path style=" stroke:none;fill-rule:nonzero;fill:rgb(13.299561%,12.199402%,12.5%);fill-opacity:1;" d="M 341.96875 107.171875 L 341.96875 84.265625 L 345 84.265625 L 345 93.671875 L 356.90625 93.671875 L 356.90625 84.265625 L 359.9375 84.265625 L 359.9375 107.171875 L 356.90625 107.171875 L 356.90625 96.375 L 345 96.375 L 345 107.171875 L 341.96875 107.171875 "/>
<path style=" stroke:none;fill-rule:nonzero;fill:rgb(13.299561%,12.199402%,12.5%);fill-opacity:1;" d="M 367.1875 96.0625 C 367.1875 98.824219 367.929688 101 369.414063 102.585938 C 370.898438 104.175781 372.757813 104.96875 375 104.96875 C 377.28125 104.96875 379.15625 104.167969 380.632813 102.5625 C 382.105469 100.960938 382.84375 98.683594 382.84375 95.734375 C 382.84375 93.871094 382.527344 92.242188 381.898438 90.851563 C 381.265625 89.460938 380.34375 88.382813 379.132813 87.617188 C 377.917969 86.851563 376.554688 86.46875 375.046875 86.46875 C 372.898438 86.46875 371.054688 87.207031 369.507813 88.679688 C 367.960938 90.15625 367.1875 92.617188 367.1875 96.0625 Z M 364.0625 96.015625 C 364.0625 92.214844 365.082031 89.238281 367.125 87.085938 C 369.164063 84.9375 371.800781 83.859375 375.03125 83.859375 C 377.144531 83.859375 379.050781 84.367188 380.75 85.375 C 382.445313 86.386719 383.742188 87.796875 384.632813 89.601563 C 385.523438 91.410156 385.96875 93.460938 385.96875 95.75 C 385.96875 98.074219 385.5 100.152344 384.5625 101.984375 C 383.625 103.820313 382.296875 105.207031 380.578125 106.148438 C 378.859375 107.09375 377.003906 107.5625 375.015625 107.5625 C 372.859375 107.5625 370.929688 107.042969 369.234375 106 C 367.535156 104.960938 366.25 103.539063 365.375 101.734375 C 364.5 99.933594 364.0625 98.027344 364.0625 96.015625 "/>
<path style=" stroke:none;fill-rule:nonzero;fill:rgb(13.299561%,12.199402%,12.5%);fill-opacity:1;" d="M 388.84375 99.8125 L 391.703125 99.5625 C 391.835938 100.710938 392.152344 101.648438 392.648438 102.382813 C 393.140625 103.117188 393.910156 103.710938 394.953125 104.164063 C 395.992188 104.617188 397.164063 104.84375 398.46875 104.84375 C 399.625 104.84375 400.644531 104.671875 401.53125 104.328125 C 402.414063 103.984375 403.074219 103.515625 403.507813 102.914063 C 403.9375 102.316406 404.15625 101.664063 404.15625 100.953125 C 404.15625 100.234375 403.945313 99.609375 403.53125 99.070313 C 403.113281 98.535156 402.425781 98.085938 401.46875 97.71875 C 400.851563 97.480469 399.492188 97.109375 397.390625 96.601563 C 395.285156 96.097656 393.8125 95.621094 392.96875 95.171875 C 391.875 94.601563 391.058594 93.890625 390.523438 93.039063 C 389.984375 92.191406 389.71875 91.242188 389.71875 90.1875 C 389.71875 89.03125 390.046875 87.953125 390.703125 86.945313 C 391.359375 85.941406 392.316406 85.179688 393.578125 84.65625 C 394.835938 84.136719 396.238281 83.875 397.78125 83.875 C 399.476563 83.875 400.976563 84.148438 402.273438 84.695313 C 403.570313 85.242188 404.566406 86.046875 405.265625 87.109375 C 405.960938 88.171875 406.335938 89.375 406.390625 90.71875 L 403.484375 90.9375 C 403.328125 89.492188 402.796875 88.398438 401.898438 87.65625 C 400.996094 86.917969 399.664063 86.546875 397.90625 86.546875 C 396.070313 86.546875 394.734375 86.882813 393.898438 87.554688 C 393.058594 88.226563 392.640625 89.039063 392.640625 89.984375 C 392.640625 90.808594 392.9375 91.484375 393.53125 92.015625 C 394.113281 92.546875 395.636719 93.09375 398.101563 93.648438 C 400.5625 94.207031 402.253906 94.695313 403.171875 95.109375 C 404.503906 95.726563 405.488281 96.503906 406.125 97.445313 C 406.757813 98.390625 407.078125 99.476563 407.078125 100.703125 C 407.078125 101.921875 406.726563 103.070313 406.03125 104.148438 C 405.332031 105.226563 404.328125 106.066406 403.023438 106.664063 C 401.714844 107.261719 400.242188 107.5625 398.609375 107.5625 C 396.535156 107.5625 394.796875 107.261719 393.398438 106.65625 C 391.996094 106.054688 390.898438 105.144531 390.101563 103.929688 C 389.304688 102.71875 388.882813 101.34375 388.84375 99.8125 "/>
<path style=" stroke:none;fill-rule:nonzero;fill:rgb(13.299561%,12.199402%,12.5%);fill-opacity:1;" d="M 414.25 95.15625 L 420.171875 95.15625 C 422.128906 95.15625 423.519531 94.792969 424.34375 94.0625 C 425.164063 93.335938 425.578125 92.308594 425.578125 90.984375 C 425.578125 90.027344 425.335938 89.207031 424.851563 88.523438 C 424.367188 87.84375 423.726563 87.390625 422.9375 87.171875 C 422.425781 87.039063 421.484375 86.96875 420.109375 86.96875 L 414.25 86.96875 Z M 411.21875 107.171875 L 411.21875 84.265625 L 419.859375 84.265625 C 421.378906 84.265625 422.539063 84.339844 423.34375 84.484375 C 424.46875 84.671875 425.410156 85.03125 426.171875 85.554688 C 426.929688 86.082031 427.542969 86.820313 428.007813 87.765625 C 428.46875 88.714844 428.703125 89.757813 428.703125 90.890625 C 428.703125 92.839844 428.082031 94.488281 426.84375 95.835938 C 425.601563 97.1875 423.363281 97.859375 420.125 97.859375 L 414.25 97.859375 L 414.25 107.171875 L 411.21875 107.171875 "/>
<path style=" stroke:none;fill-rule:nonzero;fill:rgb(13.299561%,12.199402%,12.5%);fill-opacity:1;" d="M 433.078125 107.171875 L 433.078125 84.265625 L 436.109375 84.265625 L 436.109375 107.171875 L 433.078125 107.171875 "/>
<path style=" stroke:none;fill-rule:nonzero;fill:rgb(13.299561%,12.199402%,12.5%);fill-opacity:1;" d="M 447.28125 107.171875 L 447.28125 86.96875 L 439.734375 86.96875 L 439.734375 84.265625 L 457.890625 84.265625 L 457.890625 86.96875 L 450.3125 86.96875 L 450.3125 107.171875 L 447.28125 107.171875 "/>
<path style=" stroke:none;fill-rule:nonzero;fill:rgb(13.299561%,12.199402%,12.5%);fill-opacity:1;" d="M 462.71875 97.765625 L 470.484375 97.765625 L 468.09375 91.421875 C 467.363281 89.496094 466.820313 87.914063 466.46875 86.671875 C 466.175781 88.140625 465.765625 89.601563 465.234375 91.046875 Z M 456.109375 107.171875 L 464.90625 84.265625 L 468.171875 84.265625 L 477.546875 107.171875 L 474.09375 107.171875 L 471.421875 100.234375 L 461.84375 100.234375 L 459.328125 107.171875 L 456.109375 107.171875 "/>
<path style=" stroke:none;fill-rule:nonzero;fill:rgb(13.299561%,12.199402%,12.5%);fill-opacity:1;" d="M 479.84375 107.171875 L 479.84375 84.265625 L 482.875 84.265625 L 482.875 104.46875 L 494.15625 104.46875 L 494.15625 107.171875 L 479.84375 107.171875 "/>
<path style=" stroke:none;fill-rule:nonzero;fill:rgb(13.299561%,12.199402%,12.5%);fill-opacity:1;" d="M 512.484375 92.53125 C 513.703125 91.8125 514.492188 91.183594 514.851563 90.640625 C 515.210938 90.101563 515.390625 89.5 515.390625 88.84375 C 515.390625 88.0625 515.140625 87.425781 514.648438 86.929688 C 514.152344 86.4375 513.535156 86.1875 512.796875 86.1875 C 512.035156 86.1875 511.402344 86.433594 510.898438 86.921875 C 510.390625 87.414063 510.140625 88.011719 510.140625 88.71875 C 510.140625 89.074219 510.230469 89.445313 510.414063 89.835938 C 510.59375 90.226563 510.867188 90.640625 511.234375 91.078125 Z M 516.4375 102.25 L 511.28125 95.859375 C 509.757813 96.765625 508.734375 97.609375 508.203125 98.382813 C 507.671875 99.160156 507.40625 99.929688 507.40625 100.6875 C 507.40625 101.617188 507.773438 102.578125 508.515625 103.578125 C 509.253906 104.578125 510.300781 105.078125 511.65625 105.078125 C 512.5 105.078125 513.371094 104.816406 514.273438 104.289063 C 515.171875 103.765625 515.894531 103.085938 516.4375 102.25 Z M 518.203125 104.46875 C 517.273438 105.5 516.265625 106.273438 515.171875 106.789063 C 514.078125 107.304688 512.894531 107.5625 511.625 107.5625 C 509.28125 107.5625 507.421875 106.773438 506.046875 105.1875 C 504.929688 103.898438 504.375 102.453125 504.375 100.859375 C 504.375 99.445313 504.828125 98.164063 505.742188 97.023438 C 506.652344 95.882813 508.015625 94.882813 509.828125 94.015625 C 508.796875 92.828125 508.109375 91.867188 507.765625 91.125 C 507.421875 90.386719 507.25 89.671875 507.25 88.984375 C 507.25 87.609375 507.789063 86.414063 508.867188 85.398438 C 509.945313 84.382813 511.300781 83.875 512.9375 83.875 C 514.5 83.875 515.777344 84.355469 516.773438 85.3125 C 517.765625 86.273438 518.265625 87.421875 518.265625 88.765625 C 518.265625 90.945313 516.820313 92.804688 513.9375 94.34375 L 518.046875 99.578125 C 518.515625 98.664063 518.878906 97.601563 519.140625 96.390625 L 522.0625 97.015625 C 521.5625 99.015625 520.882813 100.664063 520.03125 101.953125 C 521.082031 103.351563 522.273438 104.523438 523.609375 105.46875 L 521.71875 107.703125 C 520.582031 106.976563 519.410156 105.898438 518.203125 104.46875 "/>
<path style=" stroke:none;fill-rule:nonzero;fill:rgb(13.299561%,12.199402%,12.5%);fill-opacity:1;" d="M 547.671875 94.375 L 554.1875 94.375 C 555.570313 94.375 556.65625 94.234375 557.4375 93.945313 C 558.21875 93.660156 558.8125 93.203125 559.21875 92.570313 C 559.625 91.941406 559.828125 91.257813 559.828125 90.515625 C 559.828125 89.433594 559.433594 88.542969 558.648438 87.84375 C 557.859375 87.148438 556.617188 86.796875 554.921875 86.796875 L 547.671875 86.796875 Z M 544.640625 107.171875 L 544.640625 84.265625 L 554.796875 84.265625 C 556.835938 84.265625 558.390625 84.472656 559.453125 84.882813 C 560.515625 85.296875 561.363281 86.023438 562 87.0625 C 562.632813 88.105469 562.953125 89.257813 562.953125 90.515625 C 562.953125 92.140625 562.425781 93.511719 561.375 94.625 C 560.320313 95.742188 558.695313 96.449219 556.5 96.75 C 557.300781 97.136719 557.910156 97.515625 558.328125 97.890625 C 559.210938 98.703125 560.050781 99.71875 560.84375 100.9375 L 564.828125 107.171875 L 561.015625 107.171875 L 557.984375 102.40625 C 557.097656 101.03125 556.367188 99.980469 555.796875 99.25 C 555.222656 98.523438 554.710938 98.011719 554.257813 97.71875 C 553.804688 97.429688 553.34375 97.226563 552.875 97.109375 C 552.53125 97.039063 551.96875 97 551.1875 97 L 547.671875 97 L 547.671875 107.171875 L 544.640625 107.171875 "/>
<path style=" stroke:none;fill-rule:nonzero;fill:rgb(13.299561%,12.199402%,12.5%);fill-opacity:1;" d="M 567.765625 107.171875 L 567.765625 84.265625 L 584.328125 84.265625 L 584.328125 86.96875 L 570.796875 86.96875 L 570.796875 93.984375 L 583.46875 93.984375 L 583.46875 96.671875 L 570.796875 96.671875 L 570.796875 104.46875 L 584.859375 104.46875 L 584.859375 107.171875 L 567.765625 107.171875 "/>
<path style=" stroke:none;fill-rule:nonzero;fill:rgb(13.299561%,12.199402%,12.5%);fill-opacity:1;" d="M 588.015625 99.8125 L 590.875 99.5625 C 591.007813 100.710938 591.324219 101.648438 591.820313 102.382813 C 592.3125 103.117188 593.082031 103.710938 594.125 104.164063 C 595.164063 104.617188 596.335938 104.84375 597.640625 104.84375 C 598.796875 104.84375 599.816406 104.671875 600.703125 104.328125 C 601.585938 103.984375 602.246094 103.515625 602.679688 102.914063 C 603.109375 102.316406 603.328125 101.664063 603.328125 100.953125 C 603.328125 100.234375 603.117188 99.609375 602.703125 99.070313 C 602.285156 98.535156 601.597656 98.085938 600.640625 97.71875 C 600.023438 97.480469 598.664063 97.109375 596.5625 96.601563 C 594.457031 96.097656 592.984375 95.621094 592.140625 95.171875 C 591.046875 94.601563 590.230469 93.890625 589.695313 93.039063 C 589.15625 92.191406 588.890625 91.242188 588.890625 90.1875 C 588.890625 89.03125 589.21875 87.953125 589.875 86.945313 C 590.53125 85.941406 591.488281 85.179688 592.75 84.65625 C 594.007813 84.136719 595.410156 83.875 596.953125 83.875 C 598.648438 83.875 600.148438 84.148438 601.445313 84.695313 C 602.742188 85.242188 603.738281 86.046875 604.4375 87.109375 C 605.132813 88.171875 605.507813 89.375 605.5625 90.71875 L 602.65625 90.9375 C 602.5 89.492188 601.96875 88.398438 601.070313 87.65625 C 600.167969 86.917969 598.835938 86.546875 597.078125 86.546875 C 595.242188 86.546875 593.90625 86.882813 593.070313 87.554688 C 592.230469 88.226563 591.8125 89.039063 591.8125 89.984375 C 591.8125 90.808594 592.109375 91.484375 592.703125 92.015625 C 593.285156 92.546875 594.808594 93.09375 597.273438 93.648438 C 599.734375 94.207031 601.425781 94.695313 602.34375 95.109375 C 603.675781 95.726563 604.660156 96.503906 605.296875 97.445313 C 605.929688 98.390625 606.25 99.476563 606.25 100.703125 C 606.25 101.921875 605.898438 103.070313 605.203125 104.148438 C 604.503906 105.226563 603.5 106.066406 602.195313 106.664063 C 600.886719 107.261719 599.414063 107.5625 597.78125 107.5625 C 595.707031 107.5625 593.96875 107.261719 592.570313 106.65625 C 591.167969 106.054688 590.070313 105.144531 589.273438 103.929688 C 588.476563 102.71875 588.054688 101.34375 588.015625 99.8125 "/>
<path style=" stroke:none;fill-rule:nonzero;fill:rgb(13.299561%,12.199402%,12.5%);fill-opacity:1;" d="M 610.453125 107.171875 L 610.453125 84.265625 L 627.015625 84.265625 L 627.015625 86.96875 L 613.484375 86.96875 L 613.484375 93.984375 L 626.15625 93.984375 L 626.15625 96.671875 L 613.484375 96.671875 L 613.484375 104.46875 L 627.546875 104.46875 L 627.546875 107.171875 L 610.453125 107.171875 "/>
<path style=" stroke:none;fill-rule:nonzero;fill:rgb(13.299561%,12.199402%,12.5%);fill-opacity:1;" d="M 635.828125 97.765625 L 643.59375 97.765625 L 641.203125 91.421875 C 640.472656 89.496094 639.929688 87.914063 639.578125 86.671875 C 639.285156 88.140625 638.875 89.601563 638.34375 91.046875 Z M 629.21875 107.171875 L 638.015625 84.265625 L 641.28125 84.265625 L 650.65625 107.171875 L 647.203125 107.171875 L 644.53125 100.234375 L 634.953125 100.234375 L 632.4375 107.171875 L 629.21875 107.171875 "/>
<path style=" stroke:none;fill-rule:nonzero;fill:rgb(13.299561%,12.199402%,12.5%);fill-opacity:1;" d="M 656.15625 94.375 L 662.671875 94.375 C 664.054688 94.375 665.140625 94.234375 665.921875 93.945313 C 666.703125 93.660156 667.296875 93.203125 667.703125 92.570313 C 668.109375 91.941406 668.3125 91.257813 668.3125 90.515625 C 668.3125 89.433594 667.917969 88.542969 667.132813 87.84375 C 666.34375 87.148438 665.101563 86.796875 663.40625 86.796875 L 656.15625 86.796875 Z M 653.125 107.171875 L 653.125 84.265625 L 663.28125 84.265625 C 665.320313 84.265625 666.875 84.472656 667.9375 84.882813 C 669 85.296875 669.847656 86.023438 670.484375 87.0625 C 671.117188 88.105469 671.4375 89.257813 671.4375 90.515625 C 671.4375 92.140625 670.910156 93.511719 669.859375 94.625 C 668.804688 95.742188 667.179688 96.449219 664.984375 96.75 C 665.785156 97.136719 666.394531 97.515625 666.8125 97.890625 C 667.695313 98.703125 668.535156 99.71875 669.328125 100.9375 L 673.3125 107.171875 L 669.5 107.171875 L 666.46875 102.40625 C 665.582031 101.03125 664.851563 99.980469 664.28125 99.25 C 663.707031 98.523438 663.195313 98.011719 662.742188 97.71875 C 662.289063 97.429688 661.828125 97.226563 661.359375 97.109375 C 661.015625 97.039063 660.453125 97 659.671875 97 L 656.15625 97 L 656.15625 107.171875 L 653.125 107.171875 "/>
<path style=" stroke:none;fill-rule:nonzero;fill:rgb(13.299561%,12.199402%,12.5%);fill-opacity:1;" d="M 692.53125 99.140625 L 695.5625 99.90625 C 694.925781 102.398438 693.78125 104.296875 692.132813 105.601563 C 690.480469 106.910156 688.460938 107.5625 686.078125 107.5625 C 683.609375 107.5625 681.601563 107.0625 680.054688 106.054688 C 678.507813 105.050781 677.328125 103.59375 676.523438 101.6875 C 675.714844 99.78125 675.3125 97.734375 675.3125 95.546875 C 675.3125 93.164063 675.765625 91.082031 676.679688 89.304688 C 677.589844 87.53125 678.886719 86.179688 680.570313 85.257813 C 682.25 84.335938 684.101563 83.875 686.125 83.875 C 688.414063 83.875 690.34375 84.460938 691.90625 85.625 C 693.46875 86.792969 694.554688 88.433594 695.171875 90.546875 L 692.1875 91.25 C 691.65625 89.585938 690.882813 88.371094 689.875 87.609375 C 688.863281 86.851563 687.59375 86.46875 686.0625 86.46875 C 684.300781 86.46875 682.828125 86.890625 681.648438 87.734375 C 680.464844 88.578125 679.632813 89.710938 679.15625 91.132813 C 678.675781 92.554688 678.4375 94.023438 678.4375 95.53125 C 678.4375 97.480469 678.71875 99.179688 679.289063 100.632813 C 679.855469 102.085938 680.738281 103.171875 681.9375 103.890625 C 683.132813 104.609375 684.429688 104.96875 685.828125 104.96875 C 687.523438 104.96875 688.960938 104.480469 690.140625 103.5 C 691.316406 102.523438 692.113281 101.070313 692.53125 99.140625 "/>
<path style=" stroke:none;fill-rule:nonzero;fill:rgb(13.299561%,12.199402%,12.5%);fill-opacity:1;" d="M 699.390625 107.171875 L 699.390625 84.265625 L 702.421875 84.265625 L 702.421875 93.671875 L 714.328125 93.671875 L 714.328125 84.265625 L 717.359375 84.265625 L 717.359375 107.171875 L 714.328125 107.171875 L 714.328125 96.375 L 702.421875 96.375 L 702.421875 107.171875 L 699.390625 107.171875 "/>
<path style=" stroke:none;fill-rule:nonzero;fill:rgb(13.299561%,12.199402%,12.5%);fill-opacity:1;" d="M 747.640625 99.140625 L 750.671875 99.90625 C 750.035156 102.398438 748.890625 104.296875 747.242188 105.601563 C 745.589844 106.910156 743.570313 107.5625 741.1875 107.5625 C 738.71875 107.5625 736.710938 107.0625 735.164063 106.054688 C 733.617188 105.050781 732.4375 103.59375 731.632813 101.6875 C 730.824219 99.78125 730.421875 97.734375 730.421875 95.546875 C 730.421875 93.164063 730.875 91.082031 731.789063 89.304688 C 732.699219 87.53125 733.996094 86.179688 735.679688 85.257813 C 737.359375 84.335938 739.210938 83.875 741.234375 83.875 C 743.523438 83.875 745.453125 84.460938 747.015625 85.625 C 748.578125 86.792969 749.664063 88.433594 750.28125 90.546875 L 747.296875 91.25 C 746.765625 89.585938 745.992188 88.371094 744.984375 87.609375 C 743.972656 86.851563 742.703125 86.46875 741.171875 86.46875 C 739.410156 86.46875 737.9375 86.890625 736.757813 87.734375 C 735.574219 88.578125 734.742188 89.710938 734.265625 91.132813 C 733.785156 92.554688 733.546875 94.023438 733.546875 95.53125 C 733.546875 97.480469 733.828125 99.179688 734.398438 100.632813 C 734.964844 102.085938 735.847656 103.171875 737.046875 103.890625 C 738.242188 104.609375 739.539063 104.96875 740.9375 104.96875 C 742.632813 104.96875 744.070313 104.480469 745.25 103.5 C 746.425781 102.523438 747.222656 101.070313 747.640625 99.140625 "/>
<path style=" stroke:none;fill-rule:nonzero;fill:rgb(13.299561%,12.199402%,12.5%);fill-opacity:1;" d="M 754.46875 107.171875 L 754.46875 84.265625 L 771.03125 84.265625 L 771.03125 86.96875 L 757.5 86.96875 L 757.5 93.984375 L 770.171875 93.984375 L 770.171875 96.671875 L 757.5 96.671875 L 757.5 104.46875 L 771.5625 104.46875 L 771.5625 107.171875 L 754.46875 107.171875 "/>
<path style=" stroke:none;fill-rule:nonzero;fill:rgb(13.299561%,12.199402%,12.5%);fill-opacity:1;" d="M 775.71875 107.171875 L 775.71875 84.265625 L 778.828125 84.265625 L 790.859375 102.25 L 790.859375 84.265625 L 793.765625 84.265625 L 793.765625 107.171875 L 790.65625 107.171875 L 778.625 89.171875 L 778.625 107.171875 L 775.71875 107.171875 "/>
<path style=" stroke:none;fill-rule:nonzero;fill:rgb(13.299561%,12.199402%,12.5%);fill-opacity:1;" d="M 804.6875 107.171875 L 804.6875 86.96875 L 797.140625 86.96875 L 797.140625 84.265625 L 815.296875 84.265625 L 815.296875 86.96875 L 807.71875 86.96875 L 807.71875 107.171875 L 804.6875 107.171875 "/>
<path style=" stroke:none;fill-rule:nonzero;fill:rgb(13.299561%,12.199402%,12.5%);fill-opacity:1;" d="M 821.484375 94.375 L 828 94.375 C 829.382813 94.375 830.46875 94.234375 831.25 93.945313 C 832.03125 93.660156 832.625 93.203125 833.03125 92.570313 C 833.4375 91.941406 833.640625 91.257813 833.640625 90.515625 C 833.640625 89.433594 833.246094 88.542969 832.460938 87.84375 C 831.671875 87.148438 830.429688 86.796875 828.734375 86.796875 L 821.484375 86.796875 Z M 818.453125 107.171875 L 818.453125 84.265625 L 828.609375 84.265625 C 830.648438 84.265625 832.203125 84.472656 833.265625 84.882813 C 834.328125 85.296875 835.175781 86.023438 835.8125 87.0625 C 836.445313 88.105469 836.765625 89.257813 836.765625 90.515625 C 836.765625 92.140625 836.238281 93.511719 835.1875 94.625 C 834.132813 95.742188 832.507813 96.449219 830.3125 96.75 C 831.113281 97.136719 831.722656 97.515625 832.140625 97.890625 C 833.023438 98.703125 833.863281 99.71875 834.65625 100.9375 L 838.640625 107.171875 L 834.828125 107.171875 L 831.796875 102.40625 C 830.910156 101.03125 830.179688 99.980469 829.609375 99.25 C 829.035156 98.523438 828.523438 98.011719 828.070313 97.71875 C 827.617188 97.429688 827.15625 97.226563 826.6875 97.109375 C 826.34375 97.039063 825.78125 97 825 97 L 821.484375 97 L 821.484375 107.171875 L 818.453125 107.171875 "/>
<path style=" stroke:none;fill-rule:nonzero;fill:rgb(13.299561%,12.199402%,12.5%);fill-opacity:1;" d="M 841.578125 107.171875 L 841.578125 84.265625 L 858.140625 84.265625 L 858.140625 86.96875 L 844.609375 86.96875 L 844.609375 93.984375 L 857.28125 93.984375 L 857.28125 96.671875 L 844.609375 96.671875 L 844.609375 104.46875 L 858.671875 104.46875 L 858.671875 107.171875 L 841.578125 107.171875 "/>
</g>
</svg>
